<svg data-v-423bf9ae="" xmlns="http://www.w3.org/2000/svg" viewBox="0 0 417 91" class="iconLeft"><!----><!----><!----><g data-v-423bf9ae="" id="cd235d93-28c2-45e7-95dd-2efdc55c8ded" fill="#ffffff" transform="matrix(4.053409576416016,0,0,4.053409576416016,100.39920043945312,1.756110429763794)"><path d="M2.51 3.95L2.51 3.95L2.51 3.95Q2.51 5.19 2.46 6.46L2.46 6.46L2.46 6.46Q2.41 7.74 2.39 9.00L2.39 9.00L2.39 9.00Q2.39 9.57 2.40 10.13L2.40 10.13L2.40 10.13Q2.42 10.70 2.44 11.21L2.44 11.21L2.44 11.21Q2.47 11.72 2.49 12.14L2.49 12.14L2.49 12.14Q2.51 12.56 2.51 12.84L2.51 12.84L2.51 12.84Q2.51 13.04 2.50 13.16L2.50 13.16L2.50 13.16Q2.48 13.28 2.45 13.30L2.45 13.30L2.45 13.30Q2.41 13.34 2.39 13.34L2.39 13.34L2.39 13.34Q2.36 13.35 2.33 13.35L2.33 13.35L2.33 13.35Q2.30 13.35 2.27 13.35L2.27 13.35L2.27 13.35Q2.24 13.34 2.20 13.36L2.20 13.36L2.20 13.36Q2.15 13.38 2.14 13.41L2.14 13.41L2.14 13.41Q2.13 13.43 2.11 13.46L2.11 13.46L2.11 13.46Q2.10 13.49 2.07 13.51L2.07 13.51L2.07 13.51Q2.04 13.54 1.98 13.57L1.98 13.57L1.98 13.57Q1.89 13.59 1.81 13.52L1.81 13.52L1.81 13.52Q1.73 13.46 1.65 13.42L1.65 13.42L1.65 13.42Q1.54 13.35 1.47 13.31L1.47 13.31L1.47 13.31Q1.39 13.26 1.33 13.17L1.33 13.17L1.33 13.17Q1.29 13.08 1.25 12.92L1.25 12.92L1.25 12.92Q1.22 12.75 1.20 12.52L1.20 12.52L1.20 12.52Q1.18 12.29 1.17 12.01L1.17 12.01L1.17 12.01Q1.16 11.73 1.16 11.43L1.16 11.43L1.16 11.43Q1.16 11.09 1.17 10.74L1.17 10.74L1.17 10.74Q1.18 10.40 1.19 10.08L1.19 10.08L1.19 10.08Q1.20 9.77 1.20 9.52L1.20 9.52L1.20 9.52Q1.21 9.26 1.22 9.11L1.22 9.11L1.22 9.11Q1.23 8.61 1.25 8.07L1.25 8.07L1.25 8.07Q1.28 7.53 1.30 7.00L1.30 7.00L1.30 7.00Q1.33 6.46 1.35 5.96L1.35 5.96L1.35 5.96Q1.38 5.46 1.41 5.05L1.41 5.05L1.41 5.05Q1.44 4.63 1.46 4.34L1.46 4.34L1.46 4.34Q1.48 4.05 1.51 3.94L1.51 3.94L1.51 3.94Q1.55 3.79 1.65 3.77L1.65 3.77L1.65 3.77Q1.70 3.75 1.73 3.78L1.73 3.78L1.73 3.78Q1.76 3.81 1.80 3.75L1.80 3.75L1.80 3.75Q1.82 3.71 1.85 3.71L1.85 3.71L1.85 3.71Q1.87 3.70 1.90 3.70L1.90 3.70L1.90 3.70Q1.93 3.70 1.96 3.70L1.96 3.70L1.96 3.70Q1.98 3.70 2.00 3.68L2.00 3.68L2.00 3.68Q2.04 3.64 2.09 3.67L2.09 3.67L2.09 3.67Q2.13 3.69 2.15 3.71L2.15 3.71L2.15 3.71Q2.17 3.76 2.21 3.78L2.21 3.78L2.21 3.78Q2.24 3.81 2.28 3.77L2.28 3.77L2.28 3.77Q2.30 3.75 2.34 3.75L2.34 3.75L2.34 3.75Q2.38 3.75 2.39 3.79L2.39 3.79L2.39 3.79Q2.41 3.82 2.46 3.86L2.46 3.86L2.46 3.86Q2.51 3.89 2.51 3.95ZM11.50 6.08L11.50 6.08L11.50 6.08Q11.50 6.47 11.38 6.87L11.38 6.87L11.38 6.87Q11.26 7.27 11.02 7.64L11.02 7.64L11.02 7.64Q10.79 8.00 10.46 8.33L10.46 8.33L10.46 8.33Q10.12 8.66 9.72 8.91L9.72 8.91L9.72 8.91Q9.31 9.16 8.84 9.32L8.84 9.32L8.84 9.32Q8.37 9.47 7.85 9.51L7.85 9.51L7.85 9.51Q7.76 9.52 7.67 9.51L7.67 9.51L7.67 9.51Q7.57 9.49 7.50 9.47L7.50 9.47L7.50 9.47Q7.44 9.45 7.35 9.41L7.35 9.41L7.35 9.41Q7.25 9.37 7.22 9.34L7.22 9.34L7.22 9.34Q7.18 9.30 7.11 9.22L7.11 9.22L7.11 9.22Q7.03 9.13 7 9.08L7 9.08L7 9.08Q6.98 9.04 6.98 8.97L6.98 8.97L6.98 8.97Q6.99 8.89 6.99 8.78L6.99 8.78L6.99 8.78Q6.99 8.69 6.98 8.58L6.98 8.58L6.98 8.58Q6.98 8.48 7 8.46L7 8.46L7 8.46Q7.01 8.45 7.06 8.49L7.06 8.49L7.06 8.49Q7.12 8.52 7.27 8.54L7.27 8.54L7.27 8.54Q7.33 8.56 7.41 8.55L7.41 8.55L7.41 8.55Q7.49 8.54 7.56 8.53L7.56 8.53L7.56 8.53Q7.80 8.51 8.11 8.39L8.11 8.39L8.11 8.39Q8.43 8.28 8.76 8.09L8.76 8.09L8.76 8.09Q9.09 7.90 9.41 7.64L9.41 7.64L9.41 7.64Q9.73 7.38 9.98 7.09L9.98 7.09L9.98 7.09Q10.23 6.79 10.39 6.47L10.39 6.47L10.39 6.47Q10.54 6.14 10.54 5.80L10.54 5.80L10.54 5.80Q10.54 5.54 10.44 5.30L10.44 5.30L10.44 5.30Q10.34 5.06 10.12 4.82L10.12 4.82L10.12 4.82Q9.98 4.66 9.58 4.57L9.58 4.57L9.58 4.57Q9.19 4.48 8.63 4.48L8.63 4.48L8.63 4.48Q8.16 4.48 7.62 4.56L7.62 4.56L7.62 4.56Q7.08 4.63 6.55 4.81L6.55 4.81L6.55 4.81Q6.09 4.96 5.77 5.07L5.77 5.07L5.77 5.07Q5.45 5.18 5.22 5.27L5.22 5.27L5.22 5.27Q4.99 5.36 4.84 5.42L4.84 5.42L4.84 5.42Q4.70 5.48 4.59 5.53L4.59 5.53L4.59 5.53Q4.48 5.57 4.39 5.61L4.39 5.61L4.39 5.61Q4.30 5.65 4.20 5.67L4.20 5.67L4.20 5.67Q4.10 5.71 4.05 5.71L4.05 5.71L4.05 5.71Q3.99 5.71 3.96 5.71L3.96 5.71L3.96 5.71Q3.90 5.70 3.88 5.68L3.88 5.68L3.88 5.68Q3.86 5.67 3.82 5.65L3.82 5.65L3.82 5.65Q3.79 5.63 3.77 5.63L3.77 5.63L3.77 5.63Q3.74 5.63 3.72 5.64L3.72 5.64L3.72 5.64Q3.69 5.65 3.66 5.64L3.66 5.64L3.66 5.64Q3.64 5.63 3.61 5.59L3.61 5.59L3.61 5.59Q3.57 5.52 3.55 5.47L3.55 5.47L3.55 5.47Q3.53 5.43 3.53 5.40L3.53 5.40L3.53 5.40Q3.53 5.37 3.53 5.34L3.53 5.34L3.53 5.34Q3.54 5.31 3.55 5.27L3.55 5.27L3.55 5.27Q3.56 5.23 3.55 5.20L3.55 5.20L3.55 5.20Q3.55 5.16 3.54 5.13L3.54 5.13L3.54 5.13Q3.54 5.11 3.55 5.08L3.55 5.08L3.55 5.08Q3.56 5.04 3.61 5.00L3.61 5.00L3.61 5.00Q3.71 4.93 3.92 4.77L3.92 4.77L3.92 4.77Q4.14 4.61 4.47 4.43L4.47 4.43L4.47 4.43Q4.79 4.24 5.21 4.04L5.21 4.04L5.21 4.04Q5.63 3.84 6.13 3.67L6.13 3.67L6.13 3.67Q6.62 3.51 7.19 3.39L7.19 3.39L7.19 3.39Q7.75 3.28 8.37 3.27L8.37 3.27L8.37 3.27Q8.98 3.25 9.45 3.40L9.45 3.40L9.45 3.40Q9.92 3.55 10.27 3.79L10.27 3.79L10.27 3.79Q10.62 4.03 10.85 4.34L10.85 4.34L10.85 4.34Q11.09 4.66 11.23 4.97L11.23 4.97L11.23 4.97Q11.38 5.28 11.44 5.58L11.44 5.58L11.44 5.58Q11.50 5.87 11.50 6.08ZM6.82 5.17L6.82 5.17L6.82 5.17Q6.81 5.20 6.79 5.40L6.79 5.40L6.79 5.40Q6.77 5.60 6.75 5.91L6.75 5.91L6.75 5.91Q6.73 6.22 6.70 6.62L6.70 6.62L6.70 6.62Q6.67 7.01 6.64 7.44L6.64 7.44L6.64 7.44Q6.62 7.88 6.59 8.32L6.59 8.32L6.59 8.32Q6.57 8.76 6.56 9.16L6.56 9.16L6.56 9.16Q6.55 9.57 6.54 10.00L6.54 10.00L6.54 10.00Q6.54 10.44 6.54 10.88L6.54 10.88L6.54 10.88Q6.54 11.40 6.56 11.89L6.56 11.89L6.56 11.89Q6.58 12.39 6.64 12.86L6.64 12.86L6.64 12.86Q6.67 13.02 6.62 13.10L6.62 13.10L6.62 13.10Q6.58 13.19 6.58 13.26L6.58 13.26L6.58 13.26Q6.58 13.28 6.60 13.30L6.60 13.30L6.60 13.30Q6.62 13.32 6.60 13.33L6.60 13.33L6.60 13.33Q6.58 13.36 6.53 13.36L6.53 13.36L6.53 13.36Q6.48 13.35 6.44 13.32L6.44 13.32L6.44 13.32Q6.42 13.30 6.41 13.27L6.41 13.27L6.41 13.27Q6.39 13.23 6.38 13.21L6.38 13.21L6.38 13.21Q6.36 13.19 6.34 13.19L6.34 13.19L6.34 13.19Q6.32 13.19 6.28 13.22L6.28 13.22L6.28 13.22Q6.25 13.25 6.20 13.32L6.20 13.32L6.20 13.32Q6.16 13.38 6.11 13.44L6.11 13.44L6.11 13.44Q6.06 13.51 6.02 13.56L6.02 13.56L6.02 13.56Q5.97 13.61 5.92 13.62L5.92 13.62L5.92 13.62Q5.88 13.64 5.82 13.65L5.82 13.65L5.82 13.65Q5.76 13.67 5.75 13.61L5.75 13.61L5.75 13.61Q5.74 13.58 5.72 13.58L5.72 13.58L5.72 13.58Q5.71 13.57 5.69 13.56L5.69 13.56L5.69 13.56Q5.67 13.55 5.65 13.53L5.65 13.53L5.65 13.53Q5.63 13.51 5.63 13.46L5.63 13.46L5.63 13.46Q5.59 13.34 5.55 13.29L5.55 13.29L5.55 13.29Q5.50 13.23 5.50 13.15L5.50 13.15L5.50 13.15Q5.49 13.04 5.44 12.48L5.44 12.48L5.44 12.48Q5.39 11.93 5.39 10.95L5.39 10.95L5.39 10.95Q5.39 10.56 5.40 10.10L5.40 10.10L5.40 10.10Q5.41 9.65 5.44 9.13L5.44 9.13L5.44 9.13Q5.48 8.67 5.52 8.14L5.52 8.14L5.52 8.14Q5.57 7.61 5.62 7.10L5.62 7.10L5.62 7.10Q5.67 6.58 5.71 6.14L5.71 6.14L5.71 6.14Q5.76 5.69 5.78 5.41L5.78 5.41L5.78 5.41Q5.78 5.36 5.81 5.35L5.81 5.35L5.81 5.35Q5.84 5.33 5.89 5.33L5.89 5.33L5.89 5.33Q5.93 5.32 6.01 5.31L6.01 5.31L6.01 5.31Q6.08 5.30 6.19 5.26L6.19 5.26L6.19 5.26Q6.27 5.22 6.38 5.17L6.38 5.17L6.38 5.17Q6.49 5.13 6.59 5.11L6.59 5.11L6.59 5.11Q6.69 5.09 6.76 5.09L6.76 5.09L6.76 5.09Q6.82 5.10 6.82 5.17ZM20.42 4.35L20.42 4.35L20.42 4.35Q20.38 4.42 20.35 4.46L20.35 4.46L20.35 4.46Q20.32 4.50 20.30 4.52L20.30 4.52L20.30 4.52Q20.28 4.55 20.25 4.55L20.25 4.55L20.25 4.55Q20.20 4.57 20.04 4.59L20.04 4.59L20.04 4.59Q19.87 4.61 19.59 4.63L19.59 4.63L19.59 4.63Q19.39 4.64 19.03 4.69L19.03 4.69L19.03 4.69Q18.68 4.73 18.22 4.80L18.22 4.80L18.22 4.80Q17.77 4.86 17.23 4.93L17.23 4.93L17.23 4.93Q16.70 5.00 16.13 5.04L16.13 5.04L16.13 5.04Q16.07 6.00 16.05 7L16.05 7L16.05 7Q16.02 8.00 16.01 9.01L16.01 9.01L16.01 9.01Q16.00 10.01 15.99 11.02L15.99 11.02L15.99 11.02Q15.98 12.02 15.96 12.98L15.96 12.98L15.96 12.98Q15.96 13.02 15.93 13.05L15.93 13.05L15.93 13.05Q15.90 13.08 15.89 13.10L15.89 13.10L15.89 13.10Q15.85 13.23 15.76 13.33L15.76 13.33L15.76 13.33Q15.67 13.43 15.58 13.43L15.58 13.43L15.58 13.43Q15.29 13.43 15.14 13.34L15.14 13.34L15.14 13.34Q14.98 13.25 14.88 13.15L14.88 13.15L14.88 13.15Q14.83 13.09 14.78 12.97L14.78 12.97L14.78 12.97Q14.74 12.85 14.70 12.70L14.70 12.70L14.70 12.70Q14.67 12.56 14.64 12.39L14.64 12.39L14.64 12.39Q14.62 12.22 14.61 12.07L14.61 12.07L14.61 12.07Q14.59 11.92 14.59 11.78L14.59 11.78L14.59 11.78Q14.58 11.63 14.58 11.48L14.58 11.48L14.58 11.48Q14.58 11.16 14.60 10.84L14.60 10.84L14.60 10.84Q14.62 10.53 14.64 10.25L14.64 10.25L14.64 10.25Q14.64 10.08 14.66 9.77L14.66 9.77L14.66 9.77Q14.68 9.45 14.70 9.05L14.70 9.05L14.70 9.05Q14.73 8.65 14.77 8.19L14.77 8.19L14.77 8.19Q14.80 7.72 14.85 7.26L14.85 7.26L14.85 7.26Q14.90 6.79 14.96 6.35L14.96 6.35L14.96 6.35Q15.03 5.91 15.10 5.55L15.10 5.55L15.10 5.55Q15.13 5.44 15.16 5.34L15.16 5.34L15.16 5.34Q15.19 5.23 15.21 5.11L15.21 5.11L15.21 5.11Q14.58 5.15 13.98 5.15L13.98 5.15L13.98 5.15Q13.21 5.15 12.51 5.06L12.51 5.06L12.51 5.06Q11.81 4.97 11.32 4.74L11.32 4.74L11.32 4.74Q11.26 4.70 11.25 4.61L11.25 4.61L11.25 4.61Q11.24 4.53 11.20 4.43L11.20 4.43L11.20 4.43Q11.14 4.35 11.16 4.26L11.16 4.26L11.16 4.26Q11.17 4.17 11.17 4.11L11.17 4.11L11.17 4.11Q11.16 4.05 11.21 4.03L11.21 4.03L11.21 4.03Q11.25 4.01 11.39 4.01L11.39 4.01L11.39 4.01Q11.52 4.01 11.75 4.03L11.75 4.03L11.75 4.03Q11.99 4.04 12.37 4.04L12.37 4.04L12.37 4.04Q12.66 4.04 13.03 4.03L13.03 4.03L13.03 4.03Q13.40 4.01 13.87 3.98L13.87 3.98L13.87 3.98Q14.10 3.96 14.54 3.91L14.54 3.91L14.54 3.91Q14.98 3.87 15.54 3.82L15.54 3.82L15.54 3.82Q16.10 3.78 16.73 3.75L16.73 3.75L16.73 3.75Q17.36 3.71 17.97 3.71L17.97 3.71L17.97 3.71Q18.20 3.71 18.49 3.74L18.49 3.74L18.49 3.74Q18.78 3.76 19.06 3.80L19.06 3.80L19.06 3.80Q19.35 3.84 19.59 3.90L19.59 3.90L19.59 3.90Q19.83 3.95 19.99 4.01L19.99 4.01L19.99 4.01Q20.09 4.05 20.11 4.08L20.11 4.08L20.11 4.08Q20.13 4.11 20.13 4.13L20.13 4.13L20.13 4.13Q20.13 4.15 20.12 4.16L20.12 4.16L20.12 4.16Q20.11 4.18 20.15 4.19L20.15 4.19L20.15 4.19Q20.19 4.20 20.24 4.21L20.24 4.21L20.24 4.21Q20.29 4.22 20.33 4.23L20.33 4.23L20.33 4.23Q20.37 4.25 20.40 4.28L20.40 4.28L20.40 4.28Q20.43 4.31 20.42 4.35ZM22.85 10.35L22.85 10.35L22.85 10.35Q22.85 10.56 22.73 10.73L22.73 10.73L22.73 10.73Q22.61 10.90 22.30 10.91L22.30 10.91L22.30 10.91Q22.24 10.92 21.98 10.92L21.98 10.92L21.98 10.92Q21.72 10.93 21.36 10.94L21.36 10.94L21.36 10.94Q21 10.94 20.59 10.95L20.59 10.95L20.59 10.95Q20.18 10.96 19.82 10.97L19.82 10.97L19.82 10.97Q19.47 10.98 19.22 10.99L19.22 10.99L19.22 10.99Q18.97 10.99 18.92 10.99L18.92 10.99L18.92 10.99Q18.78 10.99 18.70 10.92L18.70 10.92L18.70 10.92Q18.61 10.85 18.57 10.76L18.57 10.76L18.57 10.76Q18.53 10.66 18.53 10.58L18.53 10.58L18.53 10.58Q18.52 10.50 18.52 10.48L18.52 10.48L18.52 10.48Q18.52 10.43 18.53 10.37L18.53 10.37L18.53 10.37Q18.53 10.31 18.55 10.25L18.55 10.25L18.55 10.25Q18.57 10.19 18.59 10.15L18.59 10.15L18.59 10.15Q18.62 10.11 18.66 10.10L18.66 10.10L18.66 10.10Q18.79 10.06 19.04 10.04L19.04 10.04L19.04 10.04Q19.30 10.01 19.62 10.00L19.62 10.00L19.62 10.00Q19.94 9.98 20.31 9.97L20.31 9.97L20.31 9.97Q20.68 9.96 21.05 9.95L21.05 9.95L21.05 9.95Q21.42 9.95 21.77 9.95L21.77 9.95L21.77 9.95Q22.13 9.95 22.42 9.95L22.42 9.95L22.42 9.95Q22.52 9.95 22.60 10.00L22.60 10.00L22.60 10.00Q22.68 10.05 22.74 10.12L22.74 10.12L22.74 10.12Q22.79 10.19 22.82 10.25L22.82 10.25L22.82 10.25Q22.85 10.32 22.85 10.35ZM30.58 13.30L30.58 13.30L30.58 13.30Q30.58 13.36 30.51 13.36L30.51 13.36L30.51 13.36Q30.44 13.36 30.37 13.36L30.37 13.36L30.37 13.36Q30.33 13.37 30.30 13.38L30.30 13.38L30.30 13.38Q30.26 13.39 30.23 13.40L30.23 13.40L30.23 13.40Q30.19 13.41 30.15 13.45L30.15 13.45L30.15 13.45Q30.17 13.51 30.16 13.55L30.16 13.55L30.16 13.55Q30.16 13.59 30.16 13.61L30.16 13.61L30.15 13.64L30.15 13.64Q30.13 13.67 30.07 13.68L30.07 13.68L30.07 13.68Q30.01 13.70 29.94 13.70L29.94 13.70L29.94 13.70Q29.93 13.70 29.90 13.69L29.90 13.69L29.90 13.69Q29.85 13.68 29.80 13.62L29.80 13.62L29.80 13.62Q29.69 13.59 29.53 13.56L29.53 13.56L29.53 13.56Q29.45 13.54 29.35 13.51L29.35 13.51L29.35 13.51Q29.28 13.49 29.22 13.41L29.22 13.41L29.22 13.41Q29.17 13.32 29.12 13.20L29.12 13.20L29.12 13.20Q29.08 13.08 29.04 12.95L29.04 12.95L29.04 12.95Q29.00 12.82 28.98 12.73L28.98 12.73L28.31 10.62L28.31 10.62Q28.16 10.62 27.93 10.62L27.93 10.62L27.93 10.62Q27.70 10.62 27.44 10.63L27.44 10.63L27.44 10.63Q27.18 10.63 26.91 10.64L26.91 10.64L26.91 10.64Q26.65 10.65 26.43 10.66L26.43 10.66L25.06 10.73L24.26 12.82L24.26 12.82Q24.24 12.85 24.20 12.95L24.20 12.95L24.20 12.95Q24.17 13.06 24.12 13.17L24.12 13.17L24.12 13.17Q24.08 13.28 24.05 13.38L24.05 13.38L24.05 13.38Q24.01 13.48 24.01 13.50L24.01 13.50L24.01 13.50Q23.99 13.56 23.93 13.57L23.93 13.57L23.93 13.57Q23.86 13.58 23.81 13.60L23.81 13.60L23.81 13.60Q23.77 13.61 23.74 13.67L23.74 13.67L23.74 13.67Q23.71 13.73 23.66 13.75L23.66 13.75L23.66 13.75Q23.60 13.79 23.52 13.76L23.52 13.76L23.52 13.76Q23.44 13.73 23.38 13.67L23.38 13.67L23.38 13.67Q23.32 13.60 23.34 13.50L23.34 13.50L23.34 13.50Q23.35 13.39 23.35 13.28L23.35 13.28L23.35 13.28Q23.35 13.16 23.35 13.06L23.35 13.06L23.35 13.06Q23.34 12.95 23.38 12.86L23.38 12.86L23.38 12.86Q23.39 12.82 23.46 12.60L23.46 12.60L23.46 12.60Q23.54 12.39 23.65 12.08L23.65 12.08L23.65 12.08Q23.75 11.78 23.88 11.42L23.88 11.42L23.88 11.42Q24.01 11.06 24.15 10.73L24.15 10.73L24.15 10.73Q24.03 10.73 23.98 10.66L23.98 10.66L23.98 10.66Q23.95 10.60 23.90 10.59L23.90 10.59L23.90 10.59Q23.85 10.58 23.80 10.56L23.80 10.56L23.80 10.56Q23.74 10.55 23.72 10.50L23.72 10.50L23.72 10.50Q23.70 10.45 23.71 10.42L23.71 10.42L23.71 10.42Q23.73 10.38 23.69 10.35L23.69 10.35L23.69 10.35Q23.66 10.32 23.66 10.23L23.66 10.23L23.66 10.23Q23.66 10.19 23.72 10.15L23.72 10.15L23.72 10.15Q23.79 10.11 23.88 10.08L23.88 10.08L23.88 10.08Q23.98 10.06 24.10 10.04L24.10 10.04L24.10 10.04Q24.22 10.01 24.33 10.00L24.33 10.00L24.33 10.00Q24.35 10.00 24.38 10.00L24.38 10.00L24.38 10.00Q24.41 10.00 24.45 9.99L24.45 9.99L24.45 9.99Q24.60 9.63 24.79 9.20L24.79 9.20L24.79 9.20Q24.98 8.78 25.18 8.35L25.18 8.35L25.18 8.35Q25.38 7.91 25.59 7.47L25.59 7.47L25.59 7.47Q25.79 7.03 25.98 6.65L25.98 6.65L25.98 6.65Q26.16 6.26 26.31 5.94L26.31 5.94L26.31 5.94Q26.47 5.62 26.57 5.41L26.57 5.41L26.57 5.41Q26.49 5.15 26.42 4.94L26.42 4.94L26.42 4.94Q26.36 4.73 26.31 4.57L26.31 4.57L26.31 4.57Q26.26 4.42 26.24 4.32L26.24 4.32L26.24 4.32Q26.21 4.23 26.21 4.22L26.21 4.22L26.21 4.22Q26.20 4.20 26.21 4.19L26.21 4.19L26.21 4.19Q26.22 4.16 26.28 4.15L26.28 4.15L26.28 4.15Q26.22 4.05 26.22 4.00L26.22 4.00L26.22 4.00Q26.22 3.97 26.24 3.96L26.24 3.96L26.24 3.96Q26.25 3.95 26.30 3.94L26.30 3.94L26.30 3.94Q26.36 3.92 26.42 3.91L26.42 3.91L26.42 3.91Q26.48 3.90 26.54 3.90L26.54 3.90L26.54 3.90Q26.59 3.90 26.61 3.90L26.61 3.90L26.61 3.90Q26.62 3.90 26.65 3.90L26.65 3.90L26.65 3.90Q26.69 3.92 26.76 3.96L26.76 3.96L26.76 3.96Q26.77 3.93 26.78 3.92L26.78 3.92L26.78 3.92Q26.79 3.90 26.80 3.89L26.80 3.89L26.82 3.87L26.82 3.87Q26.87 3.85 26.91 3.86L26.91 3.86L26.91 3.86Q26.96 3.87 27.00 3.87L27.00 3.87L27.00 3.87Q27.04 3.87 27.06 3.83L27.06 3.83L27.06 3.83Q27.08 3.80 27.15 3.80L27.15 3.80L27.15 3.80Q27.23 3.80 27.30 3.99L27.30 3.99L27.30 3.99Q27.30 4.03 27.39 4.25L27.39 4.25L27.39 4.25Q27.48 4.47 27.62 4.83L27.62 4.83L27.62 4.83Q27.75 5.19 27.94 5.66L27.94 5.66L27.94 5.66Q28.12 6.13 28.31 6.66L28.31 6.66L28.31 6.66Q28.51 7.19 28.71 7.76L28.71 7.76L28.71 7.76Q28.92 8.32 29.10 8.87L29.10 8.87L29.10 8.87Q29.48 9.98 29.74 10.75L29.74 10.75L29.74 10.75Q30.00 11.51 30.16 12.00L30.16 12.00L30.16 12.00Q30.32 12.48 30.40 12.72L30.40 12.72L30.40 12.72Q30.48 12.96 30.50 13.01L30.50 13.01L30.50 13.01Q30.54 13.12 30.56 13.18L30.56 13.18L30.56 13.18Q30.58 13.25 30.58 13.30ZM28.04 9.82L27.63 8.63L27.63 8.63Q27.45 8.12 27.24 7.49L27.24 7.49L27.24 7.49Q27.04 6.86 26.84 6.25L26.84 6.25L26.84 6.25Q26.72 6.55 26.56 6.97L26.56 6.97L26.56 6.97Q26.39 7.40 26.21 7.85L26.21 7.85L26.21 7.85Q26.03 8.30 25.86 8.73L25.86 8.73L25.86 8.73Q25.69 9.16 25.56 9.47L25.56 9.47L25.37 9.92L26.60 9.84L26.60 9.84Q26.76 9.84 26.97 9.84L26.97 9.84L26.97 9.84Q27.34 9.83 28.04 9.82L28.04 9.82ZM35.44 13.21L35.44 13.21L35.44 13.21Q35.44 13.29 35.39 13.39L35.39 13.39L35.39 13.39Q35.33 13.49 35.22 13.49L35.22 13.49L35.22 13.49Q35.16 13.49 35.12 13.45L35.12 13.45L35.12 13.45Q35.09 13.42 35.05 13.42L35.05 13.42L35.05 13.42Q35.01 13.42 34.96 13.45L34.96 13.45L34.96 13.45Q34.92 13.49 34.82 13.49L34.82 13.49L34.82 13.49Q34.68 13.49 34.58 13.39L34.58 13.39L34.58 13.39Q34.48 13.29 34.42 13.14L34.42 13.14L34.42 13.14Q34.36 12.98 34.33 12.80L34.33 12.80L34.33 12.80Q34.30 12.62 34.30 12.46L34.30 12.46L34.30 12.46Q34.30 12.15 34.32 11.76L34.32 11.76L34.32 11.76Q34.34 11.37 34.37 10.95L34.37 10.95L34.37 10.95Q34.41 10.54 34.43 10.13L34.43 10.13L34.43 10.13Q34.45 9.72 34.45 9.37L34.45 9.37L34.45 9.37Q34.45 8.91 34.39 8.65L34.39 8.65L34.39 8.65Q34.33 8.39 34.17 8.39L34.17 8.39L34.17 8.39Q34.02 8.41 33.87 8.65L33.87 8.65L33.87 8.65Q33.71 8.89 33.54 9.26L33.54 9.26L33.54 9.26Q33.38 9.63 33.22 10.10L33.22 10.10L33.22 10.10Q33.07 10.57 32.92 11.06L32.92 11.06L32.92 11.06Q32.77 11.55 32.64 12.01L32.64 12.01L32.64 12.01Q32.51 12.47 32.41 12.83L32.41 12.83L32.41 12.83Q32.31 13.19 32.23 13.42L32.23 13.42L32.23 13.42Q32.16 13.64 32.13 13.64L32.13 13.64L32.13 13.64Q32.07 13.64 32.05 13.61L32.05 13.61L32.05 13.61Q32.02 13.59 32.00 13.56L32.00 13.56L32.00 13.56Q31.97 13.54 31.94 13.51L31.94 13.51L31.94 13.51Q31.90 13.49 31.83 13.49L31.83 13.49L31.83 13.49Q31.77 13.49 31.75 13.50L31.75 13.50L31.75 13.50Q31.73 13.51 31.71 13.54L31.71 13.54L31.71 13.54Q31.68 13.56 31.64 13.57L31.64 13.57L31.64 13.57Q31.60 13.58 31.49 13.58L31.49 13.58L31.49 13.58Q31.37 13.58 31.25 13.52L31.25 13.52L31.25 13.52Q31.13 13.46 31.13 13.33L31.13 13.33L31.13 13.33Q31.13 13.25 31.16 12.99L31.16 12.99L31.16 12.99Q31.19 12.74 31.22 12.36L31.22 12.36L31.22 12.36Q31.26 11.99 31.31 11.53L31.31 11.53L31.31 11.53Q31.35 11.07 31.39 10.58L31.39 10.58L31.39 10.58Q31.42 10.08 31.45 9.59L31.45 9.59L31.45 9.59Q31.48 9.10 31.48 8.65L31.48 8.65L31.48 8.65Q31.48 8.44 31.47 8.25L31.47 8.25L31.47 8.25Q31.47 8.06 31.47 7.89L31.47 7.89L31.47 7.89Q31.47 7.85 31.51 7.85L31.51 7.85L31.51 7.85Q31.59 7.85 31.63 7.88L31.63 7.88L31.63 7.88Q31.68 7.91 31.70 7.94L31.70 7.94L31.70 7.94Q31.72 7.98 31.72 8.01L31.72 8.01L31.72 8.01Q31.73 8.04 31.73 8.04L31.73 8.04L31.73 8.04Q31.75 8.04 31.78 8.02L31.78 8.02L31.78 8.02Q31.81 7.99 31.84 7.96L31.84 7.96L31.84 7.96Q31.87 7.94 31.90 7.91L31.90 7.91L31.90 7.91Q31.92 7.89 31.94 7.89L31.94 7.89L32.01 7.89L32.01 7.89Q32.12 7.89 32.16 7.86L32.16 7.86L32.16 7.86Q32.20 7.83 32.21 7.79L32.21 7.79L32.21 7.79Q32.23 7.75 32.24 7.72L32.24 7.72L32.24 7.72Q32.25 7.69 32.28 7.69L32.28 7.69L32.28 7.69Q32.30 7.69 32.34 7.72L32.34 7.72L32.34 7.72Q32.38 7.75 32.41 7.82L32.41 7.82L32.41 7.82Q32.45 7.90 32.48 8.01L32.48 8.01L32.48 8.01Q32.50 8.13 32.50 8.29L32.50 8.29L32.50 8.29Q32.50 8.51 32.49 8.85L32.49 8.85L32.49 8.85Q32.47 9.18 32.45 9.56L32.45 9.56L32.45 9.56Q32.42 9.94 32.40 10.33L32.40 10.33L32.40 10.33Q32.38 10.71 32.38 11.03L32.38 11.03L32.38 11.03Q32.45 10.73 32.56 10.37L32.56 10.37L32.56 10.37Q32.66 10.01 32.80 9.65L32.80 9.65L32.80 9.65Q32.94 9.28 33.11 8.92L33.11 8.92L33.11 8.92Q33.27 8.57 33.46 8.30L33.46 8.30L33.46 8.30Q33.65 8.03 33.87 7.86L33.87 7.86L33.87 7.86Q34.08 7.69 34.31 7.69L34.31 7.69L34.31 7.69Q34.68 7.69 34.91 7.83L34.91 7.83L34.91 7.83Q35.15 7.96 35.29 8.20L35.29 8.20L35.29 8.20Q35.42 8.44 35.48 8.76L35.48 8.76L35.48 8.76Q35.53 9.08 35.53 9.45L35.53 9.45L35.53 9.45Q35.53 9.77 35.50 10.11L35.50 10.11L35.50 10.11Q35.47 10.46 35.44 10.80L35.44 10.80L35.44 10.80Q35.41 11.15 35.39 11.48L35.39 11.48L35.39 11.48Q35.36 11.82 35.36 12.11L35.36 12.11L35.36 12.11Q35.36 12.48 35.40 12.77L35.40 12.77L35.40 12.77Q35.44 13.06 35.44 13.21ZM41.45 10.62L41.45 10.62L41.45 10.62Q41.45 11.33 41.24 11.91L41.24 11.91L41.24 11.91Q41.04 12.48 40.68 12.89L40.68 12.89L40.68 12.89Q40.32 13.29 39.85 13.51L39.85 13.51L39.85 13.51Q39.38 13.73 38.85 13.73L38.85 13.73L38.85 13.73Q38.63 13.73 38.37 13.68L38.37 13.68L38.37 13.68Q38.11 13.62 37.85 13.51L37.85 13.51L37.85 13.51Q37.59 13.39 37.34 13.20L37.34 13.20L37.34 13.20Q37.10 13.01 36.91 12.73L36.91 12.73L36.91 12.73Q36.72 12.45 36.60 12.07L36.60 12.07L36.60 12.07Q36.49 11.70 36.50 11.20L36.50 11.20L36.50 11.20Q36.50 10.64 36.63 10.18L36.63 10.18L36.63 10.18Q36.77 9.72 36.99 9.35L36.99 9.35L36.99 9.35Q37.20 8.99 37.47 8.72L37.47 8.72L37.47 8.72Q37.75 8.46 38.02 8.27L38.02 8.27L38.02 8.27Q38.29 8.09 38.55 8.00L38.55 8.00L38.55 8.00Q38.80 7.92 38.99 7.90L38.99 7.90L38.99 7.90Q39.08 7.90 39.07 7.92L39.07 7.92L39.07 7.92Q39.06 7.95 39.02 7.98L39.02 7.98L39.02 7.98Q38.98 8.02 38.95 8.05L38.95 8.05L38.95 8.05Q38.92 8.09 38.97 8.09L38.97 8.09L38.97 8.09Q39.02 8.11 39.05 8.12L39.05 8.12L39.05 8.12Q39.08 8.13 39.12 8.16L39.12 8.16L39.17 8.09L39.17 8.09Q39.22 8.06 39.26 8.06L39.26 8.06L39.26 8.06Q39.31 8.06 39.34 8.07L39.34 8.07L39.34 8.07Q39.38 8.08 39.40 8.08L39.40 8.08L39.40 8.08Q39.42 8.08 39.42 8.04L39.42 8.04L39.42 8.04Q39.44 7.96 39.47 7.95L39.47 7.95L39.47 7.95Q39.51 7.94 39.65 7.94L39.65 7.94L39.65 7.94Q39.73 7.94 39.90 7.99L39.90 7.99L39.90 7.99Q40.07 8.04 40.27 8.16L40.27 8.16L40.27 8.16Q40.47 8.27 40.68 8.47L40.68 8.47L40.68 8.47Q40.89 8.66 41.06 8.96L41.06 8.96L41.06 8.96Q41.23 9.26 41.34 9.67L41.34 9.67L41.34 9.67Q41.45 10.08 41.45 10.62ZM38.99 8.61L38.99 8.61L38.99 8.61Q38.75 8.76 38.51 9.00L38.51 9.00L38.51 9.00Q38.28 9.25 38.09 9.57L38.09 9.57L38.09 9.57Q37.91 9.89 37.79 10.29L37.79 10.29L37.79 10.29Q37.67 10.68 37.67 11.12L37.67 11.12L37.67 11.12Q37.67 11.59 37.76 11.98L37.76 11.98L37.76 11.98Q37.84 12.36 38.01 12.63L38.01 12.63L38.01 12.63Q38.17 12.90 38.41 13.05L38.41 13.05L38.41 13.05Q38.64 13.19 38.94 13.19L38.94 13.19L38.94 13.19Q39.21 13.19 39.47 13.04L39.47 13.04L39.47 13.04Q39.74 12.89 39.94 12.59L39.94 12.59L39.94 12.59Q40.15 12.29 40.27 11.85L40.27 11.85L40.27 11.85Q40.40 11.40 40.40 10.81L40.40 10.81L40.40 10.81Q40.40 10.22 40.24 9.82L40.24 9.82L40.24 9.82Q40.09 9.41 39.89 9.16L39.89 9.16L39.89 9.16Q39.70 8.91 39.52 8.81L39.52 8.81L39.52 8.81Q39.34 8.70 39.30 8.70L39.30 8.70L39.30 8.70Q39.20 8.70 39.15 8.70L39.15 8.70L39.15 8.70Q39.10 8.70 38.99 8.61ZM46.62 13.21L46.62 13.21L46.62 13.21Q46.62 13.29 46.56 13.39L46.56 13.39L46.56 13.39Q46.50 13.49 46.40 13.49L46.40 13.49L46.40 13.49Q46.33 13.49 46.30 13.45L46.30 13.45L46.30 13.45Q46.27 13.42 46.23 13.42L46.23 13.42L46.23 13.42Q46.18 13.42 46.14 13.45L46.14 13.45L46.14 13.45Q46.09 13.49 45.99 13.49L45.99 13.49L45.99 13.49Q45.86 13.49 45.76 13.39L45.76 13.39L45.76 13.39Q45.66 13.29 45.60 13.14L45.60 13.14L45.60 13.14Q45.53 12.98 45.50 12.80L45.50 12.80L45.50 12.80Q45.47 12.62 45.47 12.46L45.47 12.46L45.47 12.46Q45.47 12.15 45.50 11.76L45.50 11.76L45.50 11.76Q45.52 11.37 45.55 10.95L45.55 10.95L45.55 10.95Q45.58 10.54 45.61 10.13L45.61 10.13L45.61 10.13Q45.63 9.72 45.63 9.37L45.63 9.37L45.63 9.37Q45.63 8.91 45.57 8.65L45.57 8.65L45.57 8.65Q45.51 8.39 45.35 8.39L45.35 8.39L45.35 8.39Q45.20 8.41 45.04 8.65L45.04 8.65L45.04 8.65Q44.88 8.89 44.72 9.26L44.72 9.26L44.72 9.26Q44.56 9.63 44.40 10.10L44.40 10.10L44.40 10.10Q44.24 10.57 44.10 11.06L44.10 11.06L44.10 11.06Q43.95 11.55 43.82 12.01L43.82 12.01L43.82 12.01Q43.69 12.47 43.59 12.83L43.59 12.83L43.59 12.83Q43.48 13.19 43.41 13.42L43.41 13.42L43.41 13.42Q43.33 13.64 43.31 13.64L43.31 13.64L43.31 13.64Q43.25 13.64 43.22 13.61L43.22 13.61L43.22 13.61Q43.20 13.59 43.17 13.56L43.17 13.56L43.17 13.56Q43.15 13.54 43.11 13.51L43.11 13.51L43.11 13.51Q43.08 13.49 43.01 13.49L43.01 13.49L43.01 13.49Q42.95 13.49 42.93 13.50L42.93 13.50L42.93 13.50Q42.91 13.51 42.88 13.54L42.88 13.54L42.88 13.54Q42.85 13.56 42.81 13.57L42.81 13.57L42.81 13.57Q42.77 13.58 42.67 13.58L42.67 13.58L42.67 13.58Q42.55 13.58 42.43 13.52L42.43 13.52L42.43 13.52Q42.31 13.46 42.31 13.33L42.31 13.33L42.31 13.33Q42.31 13.25 42.33 12.99L42.33 12.99L42.33 12.99Q42.36 12.74 42.40 12.36L42.40 12.36L42.40 12.36Q42.44 11.99 42.48 11.53L42.48 11.53L42.48 11.53Q42.53 11.07 42.56 10.58L42.56 10.58L42.56 10.58Q42.60 10.08 42.63 9.59L42.63 9.59L42.63 9.59Q42.66 9.10 42.66 8.65L42.66 8.65L42.66 8.65Q42.66 8.44 42.65 8.25L42.65 8.25L42.65 8.25Q42.64 8.06 42.64 7.89L42.64 7.89L42.64 7.89Q42.64 7.85 42.68 7.85L42.68 7.85L42.68 7.85Q42.77 7.85 42.81 7.88L42.81 7.88L42.81 7.88Q42.85 7.91 42.88 7.94L42.88 7.94L42.88 7.94Q42.90 7.98 42.90 8.01L42.90 8.01L42.90 8.01Q42.90 8.04 42.91 8.04L42.91 8.04L42.91 8.04Q42.93 8.04 42.96 8.02L42.96 8.02L42.96 8.02Q42.98 7.99 43.02 7.96L43.02 7.96L43.02 7.96Q43.05 7.94 43.07 7.91L43.07 7.91L43.07 7.91Q43.10 7.89 43.12 7.89L43.12 7.89L43.19 7.89L43.19 7.89Q43.29 7.89 43.33 7.86L43.33 7.86L43.33 7.86Q43.37 7.83 43.39 7.79L43.39 7.79L43.39 7.79Q43.41 7.75 43.42 7.72L43.42 7.72L43.42 7.72Q43.42 7.69 43.46 7.69L43.46 7.69L43.46 7.69Q43.48 7.69 43.51 7.72L43.51 7.72L43.51 7.72Q43.55 7.75 43.59 7.82L43.59 7.82L43.59 7.82Q43.63 7.90 43.65 8.01L43.65 8.01L43.65 8.01Q43.68 8.13 43.68 8.29L43.68 8.29L43.68 8.29Q43.68 8.51 43.66 8.85L43.66 8.85L43.66 8.85Q43.65 9.18 43.62 9.56L43.62 9.56L43.62 9.56Q43.60 9.94 43.58 10.33L43.58 10.33L43.58 10.33Q43.56 10.71 43.55 11.03L43.55 11.03L43.55 11.03Q43.63 10.73 43.73 10.37L43.73 10.37L43.73 10.37Q43.84 10.01 43.98 9.65L43.98 9.65L43.98 9.65Q44.12 9.28 44.28 8.92L44.28 8.92L44.28 8.92Q44.45 8.57 44.64 8.30L44.64 8.30L44.64 8.30Q44.83 8.03 45.04 7.86L45.04 7.86L45.04 7.86Q45.25 7.69 45.49 7.69L45.49 7.69L45.49 7.69Q45.86 7.69 46.09 7.83L46.09 7.83L46.09 7.83Q46.33 7.96 46.46 8.20L46.46 8.20L46.46 8.20Q46.60 8.44 46.65 8.76L46.65 8.76L46.65 8.76Q46.70 9.08 46.70 9.45L46.70 9.45L46.70 9.45Q46.70 9.77 46.68 10.11L46.68 10.11L46.68 10.11Q46.65 10.46 46.62 10.80L46.62 10.80L46.62 10.80Q46.59 11.15 46.56 11.48L46.56 11.48L46.56 11.48Q46.54 11.82 46.54 12.11L46.54 12.11L46.54 12.11Q46.54 12.48 46.58 12.77L46.58 12.77L46.58 12.77Q46.62 13.06 46.62 13.21ZM53.43 7.93L53.43 7.93L53.43 7.93Q53.41 7.96 53.29 8.16L53.29 8.16L53.29 8.16Q53.17 8.35 52.99 8.65L52.99 8.65L52.99 8.65Q52.80 8.95 52.56 9.33L52.56 9.33L52.56 9.33Q52.33 9.71 52.08 10.11L52.08 10.11L52.08 10.11Q51.83 10.52 51.58 10.92L51.58 10.92L51.58 10.92Q51.34 11.33 51.12 11.68L51.12 11.68L51.12 11.68Q50.91 12.03 50.75 12.30L50.75 12.30L50.75 12.30Q50.59 12.58 50.52 12.71L50.52 12.71L50.52 12.71Q50.44 12.85 50.31 13.14L50.31 13.14L50.31 13.14Q50.17 13.43 49.99 13.80L49.99 13.80L49.99 13.80Q49.81 14.17 49.61 14.60L49.61 14.60L49.61 14.60Q49.41 15.03 49.21 15.47L49.21 15.47L49.21 15.47Q49.01 15.90 48.82 16.31L48.82 16.31L48.82 16.31Q48.63 16.71 48.48 17.04L48.48 17.04L48.48 17.04Q48.34 17.36 48.24 17.56L48.24 17.56L48.24 17.56Q48.15 17.77 48.13 17.81L48.13 17.81L48.13 17.81Q48.07 17.97 48.02 18.01L48.02 18.01L48.02 18.01Q47.97 18.05 47.87 18.07L47.87 18.07L47.87 18.07Q47.82 18.07 47.80 18.04L47.80 18.04L47.80 18.04Q47.77 18.01 47.75 17.96L47.75 17.96L47.75 17.96Q47.73 17.91 47.71 17.87L47.71 17.87L47.71 17.87Q47.69 17.83 47.66 17.83L47.66 17.83L47.66 17.83Q47.57 17.81 47.56 17.79L47.56 17.79L47.56 17.79Q47.55 17.77 47.52 17.70L47.52 17.70L47.52 17.70Q47.50 17.67 47.48 17.67L47.48 17.67L47.48 17.67Q47.46 17.66 47.43 17.66L47.43 17.66L47.43 17.66Q47.41 17.66 47.40 17.66L47.40 17.66L47.40 17.66Q47.39 17.65 47.39 17.62L47.39 17.62L47.39 17.62Q47.41 17.50 47.42 17.38L47.42 17.38L47.42 17.38Q47.43 17.27 47.45 17.17L47.45 17.17L47.45 17.17Q47.47 17.10 47.59 16.86L47.59 16.86L47.59 16.86Q47.71 16.62 47.89 16.27L47.89 16.27L47.89 16.27Q48.06 15.93 48.29 15.51L48.29 15.51L48.29 15.51Q48.51 15.09 48.74 14.65L48.74 14.65L48.74 14.65Q48.97 14.22 49.19 13.79L49.19 13.79L49.19 13.79Q49.41 13.37 49.59 13.02L49.59 13.02L49.59 13.02Q49.50 12.83 49.35 12.53L49.35 12.53L49.35 12.53Q49.20 12.22 49.02 11.85L49.02 11.85L49.02 11.85Q48.84 11.48 48.64 11.06L48.64 11.06L48.64 11.06Q48.44 10.64 48.25 10.23L48.25 10.23L48.25 10.23Q48.06 9.82 47.88 9.44L47.88 9.44L47.88 9.44Q47.70 9.06 47.57 8.75L47.57 8.75L47.57 8.75Q47.43 8.45 47.36 8.25L47.36 8.25L47.36 8.25Q47.28 8.05 47.28 8.00L47.28 8.00L47.28 8.00Q47.29 7.92 47.32 7.89L47.32 7.89L47.32 7.89Q47.35 7.85 47.39 7.85L47.39 7.85L47.39 7.85Q47.43 7.85 47.49 7.88L47.49 7.88L47.49 7.88Q47.54 7.90 47.59 7.92L47.59 7.92L47.59 7.92Q47.67 7.95 47.75 7.98L47.75 7.98L47.75 7.98Q47.82 8.01 47.86 7.96L47.86 7.96L47.86 7.96Q47.88 7.90 47.97 7.90L47.97 7.90L47.97 7.90Q48.07 7.90 48.13 7.93L48.13 7.93L48.13 7.93Q48.15 7.95 48.17 7.94L48.17 7.94L48.17 7.94Q48.19 7.94 48.20 7.92L48.20 7.92L48.20 7.92Q48.22 7.90 48.24 7.87L48.24 7.87L48.24 7.87Q48.27 7.85 48.30 7.83L48.30 7.83L48.30 7.83Q48.38 7.82 48.44 7.86L48.44 7.86L48.44 7.86Q48.50 7.90 48.56 8.04L48.56 8.04L48.56 8.04Q48.59 8.14 48.70 8.39L48.70 8.39L48.70 8.39Q48.80 8.65 48.95 8.98L48.95 8.98L48.95 8.98Q49.10 9.32 49.27 9.70L49.27 9.70L49.27 9.70Q49.45 10.09 49.63 10.46L49.63 10.46L49.63 10.46Q49.81 10.83 49.97 11.16L49.97 11.16L49.97 11.16Q50.13 11.49 50.25 11.71L50.25 11.71L50.25 11.71Q50.44 11.37 50.65 10.98L50.65 10.98L50.65 10.98Q50.87 10.60 51.09 10.21L51.09 10.21L51.09 10.21Q51.31 9.82 51.53 9.45L51.53 9.45L51.53 9.45Q51.75 9.08 51.94 8.77L51.94 8.77L51.94 8.77Q52.14 8.46 52.29 8.22L52.29 8.22L52.29 8.22Q52.44 7.98 52.53 7.86L52.53 7.86L52.53 7.86Q52.59 7.79 52.59 7.77L52.59 7.77L52.59 7.77Q52.59 7.75 52.64 7.73L52.64 7.73L52.64 7.73Q52.68 7.72 52.72 7.70L52.72 7.70L52.72 7.70Q52.75 7.69 52.81 7.70L52.81 7.70L52.81 7.70Q52.88 7.72 52.91 7.72L52.91 7.72L52.91 7.72Q52.94 7.72 52.96 7.76L52.96 7.76L52.96 7.76Q52.98 7.78 53.01 7.77L53.01 7.77L53.01 7.77Q53.03 7.77 53.07 7.75L53.07 7.75L53.07 7.75Q53.11 7.73 53.15 7.71L53.15 7.71L53.15 7.71Q53.19 7.70 53.23 7.70L53.23 7.70L53.23 7.70Q53.28 7.71 53.33 7.72L53.33 7.72L53.33 7.72Q53.38 7.73 53.41 7.76L53.41 7.76L53.41 7.76Q53.45 7.79 53.46 7.83L53.46 7.83L53.46 7.83Q53.46 7.87 53.43 7.93ZM60.29 13.04L60.29 13.04L60.29 13.04Q60.31 13.09 60.32 13.13L60.32 13.13L60.32 13.13Q60.33 13.16 60.33 13.19L60.33 13.19L60.33 13.19Q60.33 13.25 60.28 13.27L60.28 13.27L60.28 13.27Q60.22 13.28 60.17 13.29L60.17 13.29L60.17 13.29Q60.16 13.30 60.14 13.35L60.14 13.35L60.14 13.35Q60.13 13.41 60.10 13.48L60.10 13.48L60.10 13.48Q60.08 13.55 60.03 13.60L60.03 13.60L60.03 13.60Q59.98 13.66 59.89 13.66L59.89 13.66L59.89 13.66Q59.60 13.64 59.44 13.53L59.44 13.53L59.44 13.53Q59.27 13.43 59.19 13.24L59.19 13.24L59.19 13.24Q59.11 13.06 59.09 12.80L59.09 12.80L59.09 12.80Q59.07 12.54 59.07 12.23L59.07 12.23L59.07 12.23Q59.07 11.86 59.10 11.46L59.10 11.46L59.10 11.46Q59.13 11.05 59.17 10.67L59.17 10.67L59.17 10.67Q59.21 10.29 59.24 9.95L59.24 9.95L59.24 9.95Q59.27 9.61 59.27 9.37L59.27 9.37L59.27 9.37Q59.27 9.02 59.22 8.83L59.22 8.83L59.22 8.83Q59.16 8.64 59.06 8.64L59.06 8.64L59.06 8.64Q59.01 8.64 58.81 8.92L58.81 8.92L58.81 8.92Q58.61 9.21 58.33 9.78L58.33 9.78L58.33 9.78Q58.06 10.36 57.74 11.22L57.74 11.22L57.74 11.22Q57.42 12.09 57.13 13.26L57.13 13.26L57.13 13.26Q57.12 13.31 57.12 13.36L57.12 13.36L57.12 13.36Q57.12 13.42 57.11 13.46L57.11 13.46L57.11 13.46Q57.11 13.51 57.08 13.54L57.08 13.54L57.08 13.54Q57.06 13.57 57.01 13.57L57.01 13.57L57.01 13.57Q56.92 13.57 56.86 13.53L56.86 13.53L56.86 13.53Q56.81 13.49 56.77 13.45L56.77 13.45L56.77 13.45Q56.72 13.41 56.69 13.37L56.69 13.37L56.69 13.37Q56.66 13.33 56.60 13.33L56.60 13.33L56.60 13.33Q56.58 13.33 56.57 13.36L56.57 13.36L56.57 13.36Q56.55 13.38 56.53 13.42L56.53 13.42L56.53 13.42Q56.51 13.46 56.49 13.49L56.49 13.49L56.49 13.49Q56.46 13.51 56.41 13.51L56.41 13.51L56.41 13.51Q56.37 13.51 56.32 13.50L56.32 13.50L56.32 13.50Q56.27 13.48 56.23 13.41L56.23 13.41L56.23 13.41Q56.18 13.34 56.15 13.20L56.15 13.20L56.15 13.20Q56.12 13.06 56.12 12.82L56.12 12.82L56.12 12.51L56.12 12.51Q56.12 12.41 56.14 12.21L56.14 12.21L56.14 12.21Q56.16 12.01 56.18 11.74L56.18 11.74L56.18 11.74Q56.21 11.48 56.24 11.17L56.24 11.17L56.24 11.17Q56.27 10.86 56.29 10.53L56.29 10.53L56.29 10.53Q56.31 10.21 56.33 9.91L56.33 9.91L56.33 9.91Q56.35 9.60 56.35 9.34L56.35 9.34L56.35 9.34Q56.35 8.57 56.16 8.57L56.16 8.57L56.16 8.57Q56.11 8.57 56.05 8.61L56.05 8.61L56.05 8.61Q55.99 8.64 55.90 8.75L55.90 8.75L55.90 8.75Q55.82 8.85 55.70 9.05L55.70 9.05L55.70 9.05Q55.59 9.24 55.45 9.57L55.45 9.57L55.45 9.57Q55.31 9.89 55.13 10.36L55.13 10.36L55.13 10.36Q54.95 10.83 54.73 11.48L54.73 11.48L54.73 11.48Q54.68 11.63 54.62 11.90L54.62 11.90L54.62 11.90Q54.56 12.18 54.52 12.47L54.52 12.47L54.52 12.47Q54.47 12.76 54.44 13.00L54.44 13.00L54.44 13.00Q54.41 13.24 54.41 13.32L54.41 13.32L54.41 13.32Q54.41 13.34 54.34 13.38L54.34 13.38L54.34 13.38Q54.26 13.43 54.17 13.47L54.17 13.47L54.17 13.47Q54.07 13.51 53.97 13.54L53.97 13.54L53.97 13.54Q53.87 13.57 53.82 13.57L53.82 13.57L53.82 13.57Q53.70 13.57 53.64 13.50L53.64 13.50L53.64 13.50Q53.58 13.44 53.55 13.27L53.55 13.27L53.55 13.27Q53.52 13.09 53.52 12.79L53.52 12.79L53.52 12.79Q53.51 12.48 53.51 12.00L53.51 12.00L53.51 12.00Q53.51 11.88 53.52 11.52L53.52 11.52L53.52 11.52Q53.53 11.16 53.56 10.68L53.56 10.68L53.56 10.68Q53.59 10.21 53.63 9.70L53.63 9.70L53.63 9.70Q53.67 9.18 53.72 8.75L53.72 8.75L53.72 8.75Q53.78 8.32 53.85 8.04L53.85 8.04L53.85 8.04Q53.93 7.76 54.02 7.76L54.02 7.76L54.02 7.76Q54.07 7.76 54.11 7.79L54.11 7.79L54.11 7.79Q54.15 7.83 54.19 7.86L54.19 7.86L54.19 7.86Q54.22 7.90 54.25 7.94L54.25 7.94L54.25 7.94Q54.28 7.97 54.32 7.97L54.32 7.97L54.32 7.97Q54.35 7.97 54.38 7.94L54.38 7.94L54.38 7.94Q54.41 7.92 54.43 7.88L54.43 7.88L54.43 7.88Q54.46 7.84 54.48 7.81L54.48 7.81L54.48 7.81Q54.50 7.79 54.52 7.79L54.52 7.79L54.52 7.79Q54.54 7.79 54.58 7.85L54.58 7.85L54.58 7.85Q54.62 7.92 54.66 8.02L54.66 8.02L54.66 8.02Q54.69 8.11 54.73 8.21L54.73 8.21L54.73 8.21Q54.76 8.31 54.76 8.36L54.76 8.36L54.76 8.36Q54.76 8.50 54.73 8.75L54.73 8.75L54.73 8.75Q54.71 9.00 54.68 9.31L54.68 9.31L54.68 9.31Q54.65 9.61 54.62 9.93L54.62 9.93L54.62 9.93Q54.60 10.24 54.60 10.51L54.60 10.51L54.60 10.53L54.60 10.53Q54.69 10.24 54.81 9.93L54.81 9.93L54.81 9.93Q54.93 9.62 55.07 9.32L55.07 9.32L55.07 9.32Q55.21 9.02 55.37 8.76L55.37 8.76L55.37 8.76Q55.54 8.49 55.71 8.29L55.71 8.29L55.71 8.29Q55.89 8.09 56.08 7.98L56.08 7.98L56.08 7.98Q56.26 7.86 56.45 7.86L56.45 7.86L56.45 7.86Q56.68 7.86 56.85 7.94L56.85 7.94L56.85 7.94Q57.02 8.02 57.12 8.16L57.12 8.16L57.12 8.16Q57.22 8.30 57.27 8.48L57.27 8.48L57.27 8.48Q57.32 8.66 57.32 8.87L57.32 8.87L57.32 8.87Q57.32 9.04 57.30 9.28L57.30 9.28L57.30 9.28Q57.27 9.51 57.24 9.79L57.24 9.79L57.24 9.79Q57.22 10.08 57.19 10.41L57.19 10.41L57.19 10.41Q57.17 10.75 57.16 11.15L57.16 11.15L57.16 11.15Q57.25 10.90 57.38 10.56L57.38 10.56L57.38 10.56Q57.50 10.21 57.66 9.84L57.66 9.84L57.66 9.84Q57.81 9.47 57.99 9.11L57.99 9.11L57.99 9.11Q58.16 8.75 58.34 8.46L58.34 8.46L58.34 8.46Q58.52 8.18 58.70 8.00L58.70 8.00L58.70 8.00Q58.88 7.82 59.04 7.82L59.04 7.82L59.04 7.82Q59.09 7.82 59.26 7.85L59.26 7.85L59.26 7.85Q59.42 7.88 59.61 7.94L59.61 7.94L59.61 7.94Q59.80 8.00 59.96 8.08L59.96 8.08L59.96 8.08Q60.13 8.17 60.18 8.28L60.18 8.28L60.18 8.28Q60.24 8.39 60.28 8.60L60.28 8.60L60.28 8.60Q60.33 8.81 60.33 9.16L60.33 9.16L60.33 9.16Q60.33 9.47 60.28 9.90L60.28 9.90L60.28 9.90Q60.24 10.32 60.13 10.92L60.13 10.92L60.13 10.92Q60.09 11.12 60.08 11.31L60.08 11.31L60.08 11.31Q60.07 11.49 60.07 11.67L60.07 11.67L60.07 11.67Q60.07 11.93 60.10 12.15L60.10 12.15L60.10 12.15Q60.12 12.38 60.16 12.56L60.16 12.56L60.16 12.56Q60.19 12.74 60.22 12.86L60.22 12.86L60.22 12.86Q60.26 12.99 60.29 13.04ZM63.17 4.58L63.17 4.58L63.17 4.58Q63.18 4.72 63.16 4.88L63.16 4.88L63.16 4.88Q63.14 5.05 63.11 5.21L63.11 5.21L63.11 5.21Q63.07 5.37 63.00 5.49L63.00 5.49L63.00 5.49Q62.94 5.61 62.85 5.66L62.85 5.66L62.85 5.66Q62.62 5.78 62.45 5.78L62.45 5.78L62.45 5.78Q62.32 5.78 62.22 5.71L62.22 5.71L62.22 5.71Q62.12 5.65 62.02 5.56L62.02 5.56L62.02 5.56Q61.89 5.46 61.79 5.28L61.79 5.28L61.79 5.28Q61.70 5.10 61.70 4.94L61.70 4.94L61.70 4.94Q61.70 4.81 61.75 4.62L61.75 4.62L61.75 4.62Q61.79 4.43 61.86 4.25L61.86 4.25L61.86 4.25Q61.93 4.07 62.01 3.93L62.01 3.93L62.01 3.93Q62.08 3.78 62.16 3.73L62.16 3.73L62.16 3.73Q62.28 3.63 62.37 3.62L62.37 3.62L62.37 3.62Q62.47 3.61 62.54 3.63L62.54 3.63L62.54 3.63Q62.69 3.66 62.80 3.72L62.80 3.72L62.80 3.72Q62.92 3.77 63.00 3.87L63.00 3.87L63.00 3.87Q63.08 3.98 63.12 4.15L63.12 4.15L63.12 4.15Q63.16 4.32 63.17 4.58ZM62.61 7.64L62.61 7.64L62.61 7.64Q62.64 7.67 62.66 7.86L62.66 7.86L62.66 7.86Q62.68 8.05 62.68 8.36L62.68 8.36L62.68 8.36Q62.68 8.57 62.67 8.80L62.67 8.80L62.67 8.80Q62.67 9.04 62.65 9.30L62.65 9.30L62.65 9.30Q62.64 9.55 62.63 9.81L62.63 9.81L62.63 9.81Q62.62 10.06 62.61 10.29L62.61 10.29L62.61 10.29Q62.59 10.68 62.59 11.00L62.59 11.00L62.59 11.00Q62.58 11.33 62.58 11.63L62.58 11.63L62.58 11.63Q62.58 12.02 62.59 12.35L62.59 12.35L62.59 12.35Q62.60 12.68 62.60 12.90L62.60 12.90L62.60 12.90Q62.60 13.14 62.58 13.27L62.58 13.27L62.58 13.27Q62.56 13.39 62.51 13.41L62.51 13.41L62.51 13.41Q62.45 13.42 62.41 13.46L62.41 13.46L62.41 13.46Q62.36 13.51 62.33 13.55L62.33 13.55L62.33 13.55Q62.30 13.59 62.25 13.62L62.25 13.62L62.25 13.62Q62.21 13.65 62.15 13.64L62.15 13.64L62.15 13.64Q62.11 13.63 62.03 13.58L62.03 13.58L62.03 13.58Q61.95 13.52 61.85 13.44L61.85 13.44L61.85 13.44Q61.76 13.36 61.68 13.26L61.68 13.26L61.68 13.26Q61.60 13.16 61.57 13.05L61.57 13.05L61.57 13.05Q61.56 13.00 61.55 12.83L61.55 12.83L61.55 12.83Q61.54 12.67 61.53 12.43L61.53 12.43L61.53 12.43Q61.52 12.20 61.52 11.92L61.52 11.92L61.52 11.92Q61.51 11.63 61.51 11.34L61.51 11.34L61.51 11.34Q61.50 11.05 61.50 10.77L61.50 10.77L61.50 10.77Q61.50 10.49 61.50 10.27L61.50 10.27L61.50 10.27Q61.50 9.92 61.53 9.56L61.53 9.56L61.53 9.56Q61.55 9.19 61.58 8.88L61.58 8.88L61.58 8.88Q61.61 8.57 61.64 8.33L61.64 8.33L61.64 8.33Q61.67 8.09 61.69 8.00L61.69 8.00L61.69 8.00Q61.71 7.83 61.75 7.74L61.75 7.74L61.75 7.74Q61.78 7.65 61.81 7.61L61.81 7.61L61.81 7.61Q61.85 7.57 61.89 7.56L61.89 7.56L61.89 7.56Q61.93 7.55 61.97 7.54L61.97 7.54L61.97 7.54Q62.05 7.53 62.16 7.53L62.16 7.53L62.16 7.53Q62.26 7.54 62.36 7.55L62.36 7.55L62.36 7.55Q62.45 7.57 62.52 7.59L62.52 7.59L62.52 7.59Q62.60 7.62 62.61 7.64ZM68.73 8.25L68.73 8.25L68.73 8.25Q68.71 8.29 68.69 8.31L68.69 8.31L68.69 8.31Q68.67 8.33 68.65 8.35L68.65 8.35L68.65 8.35Q68.62 8.37 68.58 8.40L68.58 8.40L68.58 8.40Q68.54 8.44 68.48 8.49L68.48 8.49L68.48 8.49Q68.36 8.58 68.09 8.83L68.09 8.83L68.09 8.83Q67.81 9.08 67.45 9.43L67.45 9.43L67.45 9.43Q67.09 9.78 66.67 10.19L66.67 10.19L66.67 10.19Q66.26 10.60 65.86 11.02L65.86 11.02L65.86 11.02Q65.47 11.43 65.13 11.81L65.13 11.81L65.13 11.81Q64.78 12.18 64.57 12.46L64.57 12.46L64.57 12.46Q64.84 12.41 65.20 12.37L65.20 12.37L65.20 12.37Q65.56 12.32 65.94 12.29L65.94 12.29L65.94 12.29Q66.32 12.26 66.70 12.24L66.70 12.24L66.70 12.24Q67.08 12.22 67.40 12.22L67.40 12.22L67.40 12.22Q67.81 12.22 68.04 12.26L68.04 12.26L68.04 12.26Q68.15 12.27 68.24 12.34L68.24 12.34L68.24 12.34Q68.33 12.40 68.38 12.48L68.38 12.48L68.38 12.48Q68.44 12.55 68.47 12.63L68.47 12.63L68.47 12.63Q68.50 12.70 68.50 12.74L68.50 12.74L68.50 12.74Q68.50 12.80 68.51 12.86L68.51 12.86L68.51 12.86Q68.52 12.91 68.51 12.96L68.51 12.96L68.51 12.96Q68.50 13.01 68.46 13.05L68.46 13.05L68.46 13.05Q68.41 13.09 68.32 13.11L68.32 13.11L68.32 13.11Q68.26 13.13 68.19 13.11L68.19 13.11L68.19 13.11Q68.12 13.10 68.05 13.08L68.05 13.08L68.05 13.08Q67.98 13.07 67.93 13.06L67.93 13.06L67.93 13.06Q67.87 13.06 67.85 13.08L67.85 13.08L67.85 13.08Q67.77 13.18 67.82 13.25L67.82 13.25L67.82 13.25Q67.86 13.32 67.96 13.41L67.96 13.41L67.96 13.41Q68.00 13.44 67.98 13.48L67.98 13.48L67.98 13.48Q67.96 13.53 67.89 13.56L67.89 13.56L67.89 13.56Q67.82 13.58 67.70 13.58L67.70 13.58L67.70 13.58Q67.58 13.58 67.44 13.54L67.44 13.54L67.44 13.54Q67.38 13.52 67.23 13.51L67.23 13.51L67.23 13.51Q67.08 13.49 66.88 13.48L66.88 13.48L66.88 13.48Q66.68 13.47 66.43 13.47L66.43 13.47L66.43 13.47Q66.18 13.46 65.91 13.46L65.91 13.46L65.91 13.46Q65.57 13.46 65.22 13.47L65.22 13.47L65.22 13.47Q64.87 13.48 64.56 13.50L64.56 13.50L64.56 13.50Q64.25 13.52 64.01 13.56L64.01 13.56L64.01 13.56Q63.77 13.59 63.66 13.64L63.66 13.64L63.66 13.64Q63.52 13.71 63.45 13.70L63.45 13.70L63.45 13.70Q63.38 13.69 63.29 13.61L63.29 13.61L63.29 13.61Q63.26 13.57 63.22 13.52L63.22 13.52L63.22 13.52Q63.18 13.48 63.17 13.44L63.17 13.44L63.17 13.44Q63.15 13.40 63.17 13.36L63.17 13.36L63.17 13.36Q63.18 13.32 63.25 13.30L63.25 13.30L63.25 13.30Q63.31 13.29 63.32 13.25L63.32 13.25L63.32 13.25Q63.32 13.21 63.30 13.17L63.30 13.17L63.30 13.17Q63.28 13.13 63.25 13.09L63.25 13.09L63.25 13.09Q63.23 13.04 63.23 13.01L63.23 13.01L63.23 13.01Q63.23 12.95 63.42 12.72L63.42 12.72L63.42 12.72Q63.61 12.49 63.92 12.15L63.92 12.15L63.92 12.15Q64.23 11.81 64.64 11.39L64.64 11.39L64.64 11.39Q65.04 10.97 65.48 10.53L65.48 10.53L65.48 10.53Q65.93 10.08 66.37 9.64L66.37 9.64L66.37 9.64Q66.81 9.19 67.21 8.81L67.21 8.81L67.21 8.81Q67.01 8.79 66.74 8.78L66.74 8.78L66.74 8.78Q66.47 8.77 66.18 8.77L66.18 8.77L66.18 8.77Q65.91 8.77 65.65 8.78L65.65 8.78L65.65 8.78Q65.39 8.78 65.16 8.79L65.16 8.79L65.16 8.79Q64.93 8.80 64.76 8.82L64.76 8.82L64.76 8.82Q64.59 8.83 64.50 8.84L64.50 8.84L64.50 8.84Q64.40 8.85 64.36 8.84L64.36 8.84L64.36 8.84Q64.32 8.83 64.31 8.81L64.31 8.81L64.31 8.81Q64.29 8.78 64.29 8.75L64.29 8.75L64.29 8.75Q64.29 8.72 64.27 8.70L64.27 8.70L64.27 8.70Q64.25 8.68 64.22 8.66L64.22 8.66L64.22 8.66Q64.19 8.64 64.17 8.61L64.17 8.61L64.17 8.61Q64.15 8.59 64.14 8.56L64.14 8.56L64.14 8.56Q64.13 8.52 64.16 8.49L64.16 8.49L64.16 8.49Q64.19 8.46 64.17 8.44L64.17 8.44L64.17 8.44Q64.16 8.42 64.13 8.40L64.13 8.40L64.13 8.40Q64.10 8.39 64.07 8.36L64.07 8.36L64.07 8.36Q64.05 8.33 64.05 8.29L64.05 8.29L64.05 8.29Q64.05 8.22 64.05 8.15L64.05 8.15L64.05 8.15Q64.05 8.08 64.11 8.07L64.11 8.07L64.11 8.07Q64.16 8.05 64.17 8.00L64.17 8.00L64.17 8.00Q64.18 7.94 64.27 7.89L64.27 7.89L64.27 7.89Q64.36 7.83 64.54 7.80L64.54 7.80L64.54 7.80Q64.73 7.77 64.98 7.75L64.98 7.75L64.98 7.75Q65.23 7.73 65.53 7.72L65.53 7.72L65.53 7.72Q65.83 7.72 66.15 7.72L66.15 7.72L66.15 7.72Q66.47 7.72 66.80 7.72L66.80 7.72L66.80 7.72Q67.12 7.72 67.42 7.73L67.42 7.73L67.42 7.73Q67.72 7.74 67.97 7.74L67.97 7.74L67.97 7.74Q68.23 7.75 68.41 7.75L68.41 7.75L68.41 7.75Q68.48 7.75 68.54 7.80L68.54 7.80L68.54 7.80Q68.61 7.85 68.67 7.93L68.67 7.93L68.67 7.93Q68.72 8.00 68.74 8.09L68.74 8.09L68.74 8.09Q68.76 8.18 68.73 8.25ZM73.70 11.01L73.70 11.01L73.70 11.01Q73.70 11.08 73.71 11.18L73.71 11.18L73.71 11.18Q73.71 11.29 73.71 11.42L73.71 11.42L73.71 11.42Q73.71 11.58 73.66 11.82L73.66 11.82L73.66 11.82Q73.62 12.07 73.51 12.33L73.51 12.33L73.51 12.33Q73.40 12.60 73.23 12.87L73.23 12.87L73.23 12.87Q73.05 13.13 72.79 13.34L72.79 13.34L72.79 13.34Q72.53 13.56 72.18 13.69L72.18 13.69L72.18 13.69Q71.83 13.82 71.37 13.82L71.37 13.82L71.37 13.82Q70.97 13.82 70.55 13.67L70.55 13.67L70.55 13.67Q70.13 13.51 69.78 13.19L69.78 13.19L69.78 13.19Q69.44 12.87 69.22 12.36L69.22 12.36L69.22 12.36Q69.00 11.86 69.00 11.16L69.00 11.16L69.00 11.16Q69.00 10.73 69.11 10.30L69.11 10.30L69.11 10.30Q69.22 9.88 69.41 9.50L69.41 9.50L69.41 9.50Q69.60 9.13 69.85 8.81L69.85 8.81L69.85 8.81Q70.11 8.49 70.39 8.26L70.39 8.26L70.39 8.26Q70.68 8.03 70.98 7.90L70.98 7.90L70.98 7.90Q71.29 7.77 71.57 7.77L71.57 7.77L71.57 7.77Q72.07 7.77 72.40 7.93L72.40 7.93L72.40 7.93Q72.72 8.09 72.91 8.32L72.91 8.32L72.91 8.32Q73.10 8.55 73.18 8.81L73.18 8.81L73.18 8.81Q73.26 9.08 73.26 9.29L73.26 9.29L73.26 9.29Q73.26 9.50 73.16 9.76L73.16 9.76L73.16 9.76Q73.06 10.02 72.84 10.26L72.84 10.26L72.84 10.26Q72.61 10.49 72.25 10.65L72.25 10.65L72.25 10.65Q71.89 10.81 71.36 10.81L71.36 10.81L71.36 10.81Q71.08 10.81 70.86 10.74L70.86 10.74L70.86 10.74Q70.64 10.66 70.46 10.54L70.46 10.54L70.46 10.54Q70.29 10.42 70.17 10.28L70.17 10.28L70.17 10.28Q70.05 10.14 69.97 10.01L69.97 10.01L69.97 10.01Q69.85 10.44 69.85 11.01L69.85 11.01L69.85 11.01Q69.85 11.40 69.96 11.71L69.96 11.71L69.96 11.71Q70.08 12.02 70.27 12.24L70.27 12.24L70.27 12.24Q70.47 12.46 70.75 12.57L70.75 12.57L70.75 12.57Q71.02 12.69 71.35 12.69L71.35 12.69L71.35 12.69Q71.76 12.69 72.06 12.55L72.06 12.55L72.06 12.55Q72.37 12.41 72.60 12.20L72.60 12.20L72.60 12.20Q72.83 11.98 73.00 11.73L73.00 11.73L73.00 11.73Q73.17 11.48 73.29 11.28L73.29 11.28L73.29 11.28Q73.41 11.07 73.50 10.93L73.50 10.93L73.50 10.93Q73.60 10.79 73.68 10.80L73.68 10.80L73.68 10.80Q73.73 10.80 73.73 10.87L73.73 10.87L73.73 10.87Q73.73 10.90 73.72 10.94L73.72 10.94L73.72 10.94Q73.71 10.97 73.70 11.01ZM71.64 8.46L71.64 8.46L71.64 8.46Q71.52 8.46 71.32 8.51L71.32 8.51L71.32 8.51Q71.13 8.57 70.91 8.70L70.91 8.70L70.91 8.70Q70.70 8.83 70.49 9.05L70.49 9.05L70.49 9.05Q70.27 9.27 70.12 9.61L70.12 9.61L70.12 9.61Q70.21 9.56 70.28 9.53L70.28 9.53L70.28 9.53Q70.36 9.50 70.38 9.50L70.38 9.50L70.38 9.50Q70.40 9.50 70.42 9.52L70.42 9.52L70.42 9.52Q70.58 9.79 70.82 9.90L70.82 9.90L70.82 9.90Q71.05 10.01 71.35 10.01L71.35 10.01L71.35 10.01Q71.58 10.01 71.75 9.94L71.75 9.94L71.75 9.94Q71.91 9.86 72.02 9.73L72.02 9.73L72.02 9.73Q72.13 9.61 72.18 9.46L72.18 9.46L72.18 9.46Q72.23 9.32 72.23 9.17L72.23 9.17L72.23 9.17Q72.23 8.87 72.07 8.66L72.07 8.66L72.07 8.66Q71.91 8.46 71.64 8.46ZM77.94 8.59L77.94 8.59L77.94 8.59Q77.93 8.78 77.90 8.98L77.90 8.98L77.90 8.98Q77.87 9.17 77.81 9.35L77.81 9.35L77.81 9.35Q77.76 9.52 77.68 9.66L77.68 9.66L77.68 9.66Q77.60 9.80 77.51 9.88L77.51 9.88L77.51 9.88Q77.42 9.95 77.38 9.95L77.38 9.95L77.38 9.95Q77.33 9.95 77.30 9.92L77.30 9.92L77.30 9.92Q77.27 9.89 77.25 9.86L77.25 9.86L77.25 9.86Q77.23 9.82 77.19 9.82L77.19 9.82L77.19 9.82Q77.16 9.81 77.12 9.82L77.12 9.82L77.12 9.82Q77.08 9.83 77.03 9.82L77.03 9.82L77.03 9.82Q76.99 9.82 76.95 9.77L76.95 9.77L76.95 9.77Q76.91 9.73 76.90 9.61L76.90 9.61L76.90 9.61Q76.88 9.48 76.91 9.27L76.91 9.27L76.91 9.27Q76.93 9.06 76.93 8.87L76.93 8.87L76.93 8.87Q76.93 8.69 76.89 8.57L76.89 8.57L76.89 8.57Q76.86 8.45 76.76 8.45L76.76 8.45L76.76 8.45Q76.71 8.45 76.59 8.52L76.59 8.52L76.59 8.52Q76.47 8.59 76.33 8.83L76.33 8.83L76.33 8.83Q76.19 9.06 76.04 9.50L76.04 9.50L76.04 9.50Q75.90 9.94 75.81 10.67L75.81 10.67L75.81 10.67Q75.81 11.61 75.82 12.19L75.82 12.19L75.82 12.19Q75.84 12.76 75.84 13.08L75.84 13.08L75.84 13.08Q75.84 13.36 75.82 13.47L75.82 13.47L75.82 13.47Q75.81 13.59 75.76 13.62L75.76 13.62L75.76 13.62Q75.72 13.64 75.62 13.68L75.62 13.68L75.62 13.68Q75.52 13.71 75.41 13.73L75.41 13.73L75.41 13.73Q75.30 13.76 75.20 13.78L75.20 13.78L75.20 13.78Q75.09 13.80 75.07 13.79L75.07 13.79L75.07 13.79Q75.04 13.79 74.99 13.75L74.99 13.75L74.99 13.75Q74.94 13.71 74.88 13.66L74.88 13.66L74.88 13.66Q74.82 13.60 74.77 13.55L74.77 13.55L74.77 13.55Q74.72 13.49 74.72 13.45L74.72 13.45L74.72 13.45Q74.70 13.38 74.71 13.14L74.71 13.14L74.71 13.14Q74.71 12.89 74.71 12.55L74.71 12.55L74.71 12.55Q74.72 12.21 74.72 11.80L74.72 11.80L74.72 11.80Q74.73 11.40 74.73 10.99L74.73 10.99L74.73 10.99Q74.73 10.73 74.75 10.41L74.75 10.41L74.75 10.41Q74.76 10.10 74.79 9.77L74.79 9.77L74.79 9.77Q74.81 9.44 74.84 9.13L74.84 9.13L74.84 9.13Q74.87 8.81 74.89 8.56L74.89 8.56L74.89 8.56Q74.92 8.31 74.93 8.15L74.93 8.15L74.93 8.15Q74.95 7.98 74.96 7.94L74.96 7.94L74.96 7.94Q74.96 7.89 75.01 7.90L75.01 7.90L75.01 7.90Q75.05 7.92 75.10 7.95L75.10 7.95L75.10 7.95Q75.15 7.98 75.20 8.01L75.20 8.01L75.20 8.01Q75.24 8.04 75.25 8.01L75.25 8.01L75.25 8.01Q75.26 7.95 75.35 7.99L75.35 7.99L75.35 7.99Q75.44 8.04 75.52 8.09L75.52 8.09L75.52 8.09Q75.54 8.13 75.58 8.15L75.58 8.15L75.58 8.15Q75.62 8.18 75.65 8.21L75.65 8.21L75.65 8.21Q75.69 8.25 75.71 8.31L75.71 8.31L75.71 8.31Q75.74 8.37 75.74 8.48L75.74 8.48L75.74 8.48Q75.74 8.57 75.75 8.76L75.75 8.76L75.75 8.76Q75.76 8.96 75.78 9.21L75.78 9.21L75.78 9.21Q75.86 8.97 75.96 8.70L75.96 8.70L75.96 8.70Q76.07 8.42 76.22 8.19L76.22 8.19L76.22 8.19Q76.37 7.96 76.58 7.81L76.58 7.81L76.58 7.81Q76.78 7.66 77.07 7.66L77.07 7.66L77.07 7.66Q77.23 7.66 77.38 7.72L77.38 7.72L77.38 7.72Q77.54 7.79 77.67 7.91L77.67 7.91L77.67 7.91Q77.79 8.03 77.87 8.20L77.87 8.20L77.87 8.20Q77.94 8.37 77.94 8.59Z"></path></g><!----><g data-v-423bf9ae="" id="de8cb6ae-486d-4f60-a680-46bb17832179" transform="matrix(1.0000135898590088,0,0,1.0000135898590088,-6.5506792068481445,-4.0012898445129395)" stroke="none" fill="#746657"><path d="M48.1 52.1c17.4 0 37.5-4 39.3-7.6S65 36.1 65 36.1c-5.8 2.7-17 2.7-17 2.7s-11.2 0-17-2.7c0 0-24.1 4.9-22.3 8.5 1.9 3.5 21.5 7.5 39.4 7.5zM63.1 29.2S59.7 9.8 57.2 6c-2.5-3.8-6.3 4.5-10.2 4.5-3.9 0-4.8-5.3-8.3-5.5-3.6-.2-7.1 24.2-7.1 24.2s18.4 4.2 31.5 0zM31.5 53.3s-1.6 7.4 8 7.6c0 0 3.7 0 5.6-3.3.6-1 1.5-1.6 2.7-1.6h.4c1.1 0 2.1.6 2.7 1.6 1.9 3.3 5.6 3.3 5.6 3.3 9.6-.2 8-7.6 8-7.6-4.4 1.5-11.3 1.4-13.7 1.3h-4.7c.1-.1-9.2.4-14.6-1.3zM27.7 53.3l-7.4-1.1-12.8 11h1.2c5.7 0 20.8 4.8 20.8 4.8l-8 6.9c6 1.2 24.9 11.3 24.9 11.3l1.8-6.6C33.1 68.5 27.7 53.3 27.7 53.3z"></path><path d="M92.6 62.9L77.1 52.1l-8.3 1.1c.5 2.7-1.2 7.6-1.2 7.6-23.9 18.1-20 34.2-20 34.2C57.1 76.2 78 73.6 78 73.6l-9.5-4.5c6.2-3.9 24.1-6.2 24.1-6.2z"></path></g><!----></svg>